# AST/ASF file generated using VICON BodyLanguage
# -----------------------------------------------
:version 1.10
:name VICON
:units
  mass 1.0
  length 0.45
  angle deg
:documentation
   .ast/.asf automatically generated from VICON data using
   VICON BodyBuilder and BodyLanguage model FoxedUp or BRILLIANT.MOD
:root
   order TX TY TZ RX RY RZ
   axis XYZ
   position 0 0 0  
   orientation 0 0 0 
:bonedata
  begin
     id 1 
     name lhipjoint
     direction 0.570549 -0.739093 0.358072 
     length 2.41801 
     axis 0 0 0  XYZ
  end
  begin
     id 2 
     name lfemur
     direction 0.34202 -0.939693 0  
     length 7.44434  
     axis 0 0 20  XYZ
    dof rx ry rz
    limits (-160.0 20.0)
           (-70.0 70.0)
           (-60.0 70.0)
  end
  begin
     id 3 
     name ltibia
     direction 0.34202 -0.939693 0   
     length 7.60047   
     axis 0 0 20   XYZ
    dof rx
    limits (-10.0 170.0)
  end
  begin
     id 4 
     name lfoot
     direction 0.0909041 -0.249757 0.964032   
     length 2.03437   
     axis -90 7.62852e-016 20   XYZ
    dof rx rz
    limits (-45.0 90.0)
           (-70.0 20.0)
  end
  begin
     id 5 
     name ltoes
     direction 1.53547e-011 -4.2174e-011 1   
     length 1.02054   
     axis -90 7.62852e-016 20   XYZ
    dof rx
    limits (-90.0 20.0)
  end
  begin
     id 6 
     name rhipjoint
     direction -0.558096 -0.746754 0.361784   
     length 2.3932  
     axis 0 0 0  XYZ 
  end
  begin
     id 7 
     name rfemur
     direction -0.34202 -0.939693 0   
     length 7.3886   
     axis 0 0 -20   XYZ
    dof rx ry rz
    limits (-160.0 20.0)
           (-70.0 70.0)
           (-70.0 60.0)
  end
  begin
     id 8 
     name rtibia
     direction -0.34202 -0.939693 0   
     length 7.4839   
     axis 0 0 -20   XYZ
    dof rx
    limits (-10.0 170.0)
 end
 begin
     id 9 
     name rfoot
     direction -0.114619 -0.314914 0.942174   
     length 2.25127  
     axis -90 -7.62852e-016 -20   XYZ
    dof rx rz
    limits (-45.0 90.0)
           (-20.0 70.0)
  end
  begin
     id 10 
     name rtoes
     direction -1.53518e-011 -4.21881e-011 1   
     length 1.11821   
     axis -90 -7.62852e-016 -20   XYZ
    dof rx
    limits (-90.0 20.0)
  end
  begin
     id 11 
     name lowerback
     direction -0.00902269 0.996426 -0.0839821   
     length 2.25052   
     axis 0 0 0   XYZ
    dof rx ry rz
    limits (-20.0 45.0)
           (-30.0 30.0)
           (-30.0 30.0)
  end
  begin
     id 12 
     name upperback
     direction 0.0370973 0.999169 -0.0168941   
     length 2.24876   
     axis 0 0 0   XYZ
    dof rx ry rz
    limits (-20.0 45.0)
           (-30.0 30.0)
           (-30.0 30.0)
  end
  begin
     id 13 
     name thorax
     direction 0.0402726 0.998931 0.0227027   
     length 2.26408   
     axis 0 0 0   XYZ
    dof rx ry rz
    limits (-20.0 45.0)
           (-30.0 30.0)
           (-30.0 30.0)
  end
  begin
     id 14 
     name lowerneck
     direction -0.0733697 0.98508 0.155675   
     length 1.58204   
     axis 0 0 0   XYZ
    dof rx ry rz
    limits (-20.0 45.0)
           (-30.0 30.0)
           (-30.0 30.0)
  end
  begin
     id 15 
     name upperneck
     direction 0.0426554 0.993501 -0.105526   
     length 1.61222   
     axis 0 0 0   XYZ
    dof rx ry rz
    limits (-20.0 45.0)
           (-30.0 30.0)
           (-30.0 30.0)
  end
  begin
     id 16
     name head
     direction 0.020792 0.998384 -0.0528868  
     length 1.61527  
     axis 0 0 0   XYZ
    dof rx ry rz
    limits (-20.0 45.0)
           (-30.0 30.0)
           (-30.0 30.0)
  end
  begin
     id 17 
     name lclavicle
     direction 0.967109 0.155462 -0.201325  
     length 3.59357  
     axis 0 0 0   XYZ
    dof ry rz
    limits (-20.0 10.0)
           (0.0 20.0)
  end
  begin
     id 18 
     name lhumerus
     direction 1 -4.48968e-011 2.38195e-027   
     length 5.38154   
     axis 180 -30 -90   XYZ
    dof rx ry rz
    limits (-60.0 90.0)
           (-90.0 90.0)
           (-90.0 90.0)
  end
  begin
     id 19
     name lradius
     direction 1 -4.48961e-011 4.85371e-027   
     length 3.33312   
     axis 180 -30 -90   XYZ
    dof rx
    limits (-10.0 170.0)
  end
  begin
     id 20
     name lwrist
     direction 1 -4.48961e-011 4.76515e-027   
     length 1.66656   
     axis -3.27502e-015 90 90   XYZ
    dof ry
    limits (-180.0 0.0)
 end
  begin
     id 21 
     name lhand
     direction 1 -4.48951e-011 9.53074e-027   
     length 0.710789   
     axis -6.08098e-015 90 90   XYZ
    dof rx rz
    limits (-90.0 90.0)
           (-45.0 45.0)
  end
  begin
     id 22 
     name lfingers
     direction 1 -4.48953e-011 1.90613e-026   
     length 0.573057   
     axis -1.21619e-014 90 90   XYZ
    dof rx
    limits (0.0 90.0)
  end
  begin
     id 23
     name lthumb
     direction 0.707107 -6.34973e-011 0.707107   
     length 0.822798   
     axis -90 45 -9.86923e-015   XYZ
    dof rx rz
    limits (-45.0 45.0)
           (-45.0 45.0)
  end
  begin
     id 24 
     name rclavicle
     direction -0.9585 0.265289 -0.104398   
     length 3.42039  
     axis 0 0 0   XYZ 
    dof ry rz
    limits (-10.0 20.0)
           (-20.0 0.0)
  end
  begin
     id 25 
     name rhumerus
     direction -1 -4.48977e-011 2.21478e-027  
     length 5.16954   
     axis 180 30 90   XYZ
    dof rx ry rz
    limits (-90.0 60.0)
           (-90.0 90.0)
           (-90.0 90.0)
  end
  begin
     id 26 
     name rradius
     direction -1 -4.48967e-011 5.63677e-027   
     length 3.38287   
     axis 180 30 90   XYZ
    dof rx
    limits (-10.0 170.0)
  end
  begin
     id 27 
     name rwrist
     direction -1 -4.48967e-011 4.76501e-027   
     length 1.69144   
     axis -3.27502e-015 -90 -90   XYZ
    dof ry
    limits (-180.0 0.0)
  end
  begin
     id 28
     name rhand
     direction -1 -4.48902e-011 9.53292e-027   
     length 0.817967   
     axis -6.08098e-015 -90 -90   XYZ
    dof rx rz
    limits (-90.0 90.0)
           (-45.0 45.0)
  end
  begin
     id 29
     name rfingers
     direction -1 -4.49012e-011 1.90561e-026   
     length 0.659466   
     axis -1.21619e-014 -90 -90   XYZ
    dof rx
    limits (0.0 90.0)
  end
  begin
     id 30
     name rthumb
     direction -0.707107 -6.34944e-011 0.707107   
     length 0.946865   
     axis -90 -45 9.86923e-015   XYZ
    dof rx rz
    limits (-45.0 45.0)
           (-45.0 45.0)
  end
:hierarchy
  begin
    root lhipjoint rhipjoint lowerback
    lhipjoint lfemur
    lfemur ltibia
    ltibia lfoot
    lfoot ltoes
    rhipjoint rfemur
    rfemur rtibia
    rtibia rfoot
    rfoot rtoes
    lowerback upperback
    upperback thorax
    thorax lowerneck lclavicle rclavicle
    lowerneck upperneck
    upperneck head
    lclavicle lhumerus
    lhumerus lradius
    lradius lwrist
    lwrist lhand lthumb
    lhand lfingers
    rclavicle rhumerus
    rhumerus rradius
    rradius rwrist
    rwrist rhand rthumb
    rhand rfingers
  end

#!OML:ASF F:\twosubjects\two\wednesday\Session 1\Justin1.ASF
:FULLY-SPECIFIED
:DEGREES
50
root 13.6243 17.3181 -8.74002 2.41908 4.3554 5.34194
lowerback 2.86196 -0.083966 -5.57561
upperback 3.06001 -0.198872 0.182078
thorax 1.57147 -0.206847 3.31685
lowerneck -16.1285 -2.71871 -9.06323
upperneck 14.805 -2.8496 7.26865
head 7.43717 -1.20405 3.56895
rclavicle 1.89839e-014 -1.19271e-015
rhumerus -56.6571 44.6932 -95.7459
rradius 59.8578
rwrist -19.977
rhand -12.9402 20.5498
rfingers 7.12502
rthumb 13.1508 -9.01544
lclavicle 1.89839e-014 -1.19271e-015
lhumerus -20.9745 -4.57709 77.4171
lradius 43.0095
lwrist -7.74383
lhand 1.86564 35.349
lfingers 7.12502
lthumb 27.3761 63.3805
rfemur -30.4907 -4.3105 14.4114
rtibia 16.0177
rfoot -9.74742 -12.6109
rtoes -4.80949
lfemur 11.6859 0.753136 -26.4062
ltibia 14.6581
lfoot -15.3589 -6.91317
ltoes -19.9241
51
root 13.6088 17.2992 -8.55157 2.36336 4.39676 5.64965
lowerback 2.97645 -0.0610007 -5.64334
upperback 3.012 -0.176685 0.0239082
thorax 1.4552 -0.190978 3.19151
lowerneck -15.9423 -2.71935 -9.11348
upperneck 14.6917 -2.86553 7.35325
head 7.37118 -1.20949 3.60257
rclavicle 3.47873e-015 3.45885e-014
rhumerus -56.9594 44.3625 -96.0702
rradius 59.8036
rwrist -19.8991
rhand -13.1047 20.4679
rfingers 7.12502
rthumb 12.9923 -9.10753
lclavicle 3.47873e-015 3.45885e-014
lhumerus -21.3035 -4.86811 77.4973
lradius 43.2376
lwrist -7.39081
lhand 3.21238 36.8921
lfingers 7.12502
lthumb 28.6635 64.7132
rfemur -30.6336 -4.76158 14.4665
rtibia 17.4754
rfoot -9.06332 -11.5445
rtoes -7.72429
lfemur 12.4545 0.441485 -26.6651
ltibia 14.6741
lfoot -15.0322 -7.03525
ltoes -22.4978
52
root 13.5801 17.3032 -8.35982 2.30687 4.46301 5.6508
lowerback 2.9912 -0.0591184 -5.71146
upperback 3.02007 -0.176736 0.098475
thorax 1.45636 -0.193278 3.3069
lowerneck -15.6494 -2.62945 -9.45335
upperneck 14.4101 -2.73469 7.67753
head 7.22626 -1.14048 3.77856
rclavicle 6.4605e-015 0
rhumerus -57.3012 44.3173 -96.2084
rradius 59.9884
rwrist -20.062
rhand -12.7719 20.3747
rfingers 7.12502
rthumb 13.313 -9.18005
lclavicle 6.4605e-015 0
lhumerus -21.3745 -4.63335 77.766
lradius 43.1249
lwrist -7.64467
lhand 3.16572 37.1892
lfingers 7.12502
lthumb 28.6189 65.0179
rfemur -30.6634 -4.64176 14.6596
rtibia 18.8318
rfoot -8.06641 -10.6621
rtoes -9.66351
lfemur 13.1399 -0.240508 -26.65
ltibia 14.6872
lfoot -14.203 -7.2238
ltoes -22.1994
53
root 13.5527 17.3214 -8.16936 2.02468 4.4966 5.36287
lowerback 3.24238 -0.169755 -5.57479
upperback 3.06026 -0.337646 0.235328
thorax 1.37279 -0.271278 3.37548
lowerneck -15.5705 -2.29504 -9.30308
upperneck 14.2844 -2.3163 7.68927
head 7.1311 -0.931441 3.8016
rclavicle 1.5207e-014 1.19271e-015
rhumerus -57.6821 44.5349 -96.5633
rradius 60.2109
rwrist -20.243
rhand -12.4357 20.4755
rfingers 7.12502
rthumb 13.6371 -9.05775
lclavicle 1.5207e-014 1.19271e-015
lhumerus -21.7624 -4.07936 77.7492
lradius 43.2835
lwrist -7.93479
lhand 3.30053 36.5483
lfingers 7.12502
lthumb 28.7477 64.3551
rfemur -30.5331 -4.09828 14.9108
rtibia 20.0701
rfoot -6.26232 -10.0292
rtoes -7.15996
lfemur 13.9094 -0.745057 -26.2559
ltibia 14.8382
lfoot -13.1011 -7.554
ltoes -20.589
54
root 13.5289 17.332 -7.97175 1.71789 4.5203 5.1594
lowerback 3.51517 -0.23614 -5.47593
upperback 3.01373 -0.443029 0.331446
thorax 1.18209 -0.317049 3.42351
lowerneck -15.5988 -1.95447 -8.97512
upperneck 14.4001 -1.90664 7.55922
head 7.13114 -0.728689 3.7499
rclavicle 1.78906e-014 4.37326e-015
rhumerus -58.3556 44.6336 -97.2195
rradius 60.2408
rwrist -20.5017
rhand -12.648 20.734
rfingers 7.12502
rthumb 13.4325 -8.8129
lclavicle 1.78906e-014 4.37326e-015
lhumerus -22.446 -3.79298 77.8064
lradius 43.5765
lwrist -7.8342
lhand 2.76372 35.7185
lfingers 7.12502
lthumb 28.2348 63.6113
rfemur -30.416 -3.29708 14.87
rtibia 21.2367
rfoot -4.62098 -10.0679
rtoes -2.45487
lfemur 14.685 -1.0404 -25.9113
ltibia 15.1133
lfoot -12.1284 -7.71161
ltoes -22.0259
55
root 13.4999 17.3381 -7.76925 1.52221 4.6307 5.02248
lowerback 3.57507 -0.240071 -5.44958
upperback 3.04684 -0.450873 0.42204
thorax 1.18422 -0.322227 3.50294
lowerneck -15.884 -1.83239 -8.82275
upperneck 14.7111 -1.75643 7.51561
head 7.26625 -0.648806 3.73239
rclavicle -1.64991e-014 1.51076e-014
rhumerus -58.8264 44.572 -97.5795
rradius 60.272
rwrist -20.7837
rhand -12.7176 20.9794
rfingers 7.12502
rthumb 13.3654 -8.57191
lclavicle -1.64991e-014 1.51076e-014
lhumerus -22.8508 -3.7148 78.1218
lradius 43.5668
lwrist -7.26457
lhand -0.880513 33.3603
lfingers 7.12502
lthumb 24.7467 61.7795
rfemur -30.3172 -2.68549 14.8673
rtibia 22.3874
rfoot -3.60724 -10.164
rtoes -2.48176
lfemur 15.2434 -1.53451 -25.6683
ltibia 15.5768
lfoot -11.1642 -7.9002
ltoes -24.5349
56
root 13.4725 17.3525 -7.56505 1.32171 4.89498 5.08851
lowerback 3.65689 -0.366424 -5.5239
upperback 3.1444 -0.623025 0.428282
thorax 1.25831 -0.413774 3.55533
lowerneck -16.2757 -1.77328 -8.65047
upperneck 15.0822 -1.65709 7.28431
head 7.44332 -0.608243 3.64489
rclavicle 1.35174e-014 9.54166e-015
rhumerus -58.9531 44.6743 -97.7655
rradius 60.3844
rwrist -21.2142
rhand -12.4583 20.987
rfingers 7.12502
rthumb 13.6153 -8.54771
lclavicle 1.35174e-014 9.54166e-015
lhumerus -23.1039 -2.83791 78.1101
lradius 43.814
lwrist -8.70116
lhand -2.19631 31.9851
lfingers 7.12502
lthumb 23.4851 60.5716
rfemur -30.0688 -2.50626 14.7344
rtibia 23.4561
rfoot -2.9225 -9.62274
rtoes -5.56683
lfemur 15.5468 -2.33478 -25.7446
ltibia 16.5249
lfoot -10.3359 -8.12358
ltoes -25.9889
57
root 13.4507 17.3676 -7.36008 1.12487 4.98844 4.78645
lowerback 3.60614 -0.499397 -5.29675
upperback 3.2888 -0.789465 0.64128
thorax 1.45238 -0.503739 3.65009
lowerneck -16.6277 -1.64606 -8.39841
upperneck 15.2973 -1.40405 6.64069
head 7.54765 -0.529357 3.41996
rclavicle -4.47266e-015 3.57812e-015
rhumerus -58.9289 45.1826 -97.8794
rradius 60.3651
rwrist -21.7911
rhand -12.3686 20.5981
rfingers 7.12502
rthumb 13.7018 -8.9308
lclavicle -4.47266e-015 3.57812e-015
lhumerus -23.3307 -1.91404 78.3262
lradius 43.6
lwrist -8.71725
lhand -2.1585 32.0413
lfingers 7.12502
lthumb 23.5214 60.6232
rfemur -29.804 -2.38863 15.0202
rtibia 24.2996
rfoot -2.19026 -8.77232
rtoes -5.6066
lfemur 15.5556 -3.22053 -25.5737
ltibia 17.9856
lfoot -9.3925 -7.98702
ltoes -26.2441
58
root 13.4297 17.3794 -7.1572 0.972121 4.73489 3.89126
lowerback 3.57847 -0.46837 -4.39045
upperback 3.28442 -0.728628 0.913642
thorax 1.44417 -0.458795 3.42009
lowerneck -16.7228 -1.49609 -8.10295
upperneck 15.476 -1.19623 6.24534
head 7.60221 -0.450558 3.26493
rclavicle 1.49089e-015 1.03368e-014
rhumerus -59.174 45.3734 -98.2135
rradius 60.1784
rwrist -21.7783
rhand -12.5193 20.3628
rfingers 7.12502
rthumb 13.5565 -9.17586
lclavicle 1.49089e-015 1.03368e-014
lhumerus -23.7123 -1.21872 78.5393
lradius 43.2784
lwrist -8.32934
lhand 1.84379 34.9737
lfingers 7.12502
lthumb 27.3552 63.0086
rfemur -29.6222 -1.93517 15.9641
rtibia 24.9107
rfoot -1.08483 -7.96703
rtoes -0.264244
lfemur 15.2214 -3.55139 -24.6391
ltibia 19.83
lfoot -7.98455 -8.06482
ltoes -25.2586
